<?xml version="1.0" encoding="UTF-8"?>
<!DOCTYPE svg  PUBLIC '-//W3C//DTD SVG 1.1//EN'  'http://www.w3.org/Graphics/SVG/1.1/DTD/svg11.dtd'>
<svg width="65px" height="65px" clip-rule="evenodd" fill-rule="evenodd" image-rendering="optimizeQuality" shape-rendering="geometricPrecision" text-rendering="geometricPrecision" viewBox="0 0 100 100" xml:space="preserve" xmlns="http://www.w3.org/2000/svg">
   <defs>
   <style type="text/css">
      <![CDATA[
      .fil0 {fill:black}
      ]]>
   </style>
   </defs>
   <path class="fil0" d="m49.998 15.625c-18.938 0-34.294 15.356-34.294 34.299 0 15.152 9.8239 28.009 23.457 32.544 1.7152 0.3142 2.2548-0.7033 2.2548-1.6119 0-0.815 0.0171-3.0905 0-5.955-9.5391 2.0749-11.516-4.5163-11.516-4.5163-1.5583-3.964-3.8051-5.0173-3.8051-5.0173-3.1138-2.1272 0.2333-2.0877 0.2333-2.0877 3.4412 0.2432 5.2554 3.5366 5.2554 3.5366 3.0595 5.2367 8.0256 3.725 9.9785 2.8499 0.3128-2.2172 1.2009-3.7293 2.1806-4.5857-7.6154-0.8667-15.622-3.8081-15.622-16.951 0-3.7464 1.3359-6.8065 3.5295-9.2025-0.3538-0.8673-1.5329-4.3553 0.3366-9.0791 0 0 2.8791-0.9213 9.4297 3.5185 2.7355-0.7608 5.6712-1.1403 8.5868-1.1535 2.9143 0.0132 5.8479 0.3927 8.5866 1.1535 6.5494-4.438 9.4267-3.5185 9.4267-3.5185 1.8676 4.7238 0.691 8.2118 0.339 9.0791 2.194 2.396 3.5266 5.4561 3.5266 9.2025 0 13.178-8.0199 16.076-15.663 16.922 1.2314 1.0617 2.3497 3.1197 2.3497 6.3191v9.4937c0 0.917 0.5525 1.9326 2.2944 1.5995 13.618-4.5432 23.435-17.392 23.435-32.54 0-18.943-15.356-34.299-34.299-34.299zm0.0024-3.1249c20.711 0 37.5 16.789 37.5 37.5 0 20.711-16.789 37.5-37.5 37.5s-37.5-16.789-37.5-37.5c0-20.711 16.789-37.5 37.5-37.5z"/>
</svg>
